<svg width="437" height="934" viewBox="0 0 437 934" fill="none" xmlns="http://www.w3.org/2000/svg">
<path d="M394.407 817.597L409.853 878.975L436.079 923.968C436.528 924.737 436.815 925.59 436.92 926.473C437.026 927.357 436.949 928.253 436.694 929.106C436.439 929.959 436.012 930.75 435.438 931.431C434.865 932.112 434.158 932.667 433.361 933.063C432.444 933.532 431.43 933.776 430.401 933.776C429.372 933.776 428.358 933.532 427.442 933.063C415.652 926.711 372.44 903.108 371.573 898.561C370.539 893.291 350.954 834.921 350.954 834.921L394.407 817.597Z" fill="#84654D"/>
<g opacity="0.6">
<path d="M433.36 933.063L370.418 894.35L371.14 896.925C371.755 899.161 373.145 901.105 375.062 902.41C380.187 905.899 394.575 915.186 427.249 933.015C428.189 933.518 429.238 933.782 430.304 933.782C431.371 933.782 432.42 933.518 433.36 933.015V933.063Z" fill="white"/>
</g>
<g opacity="0.6">
<path d="M377.516 871.204C378.423 871.547 379.171 872.214 379.616 873.076C380.06 873.938 380.169 874.934 379.922 875.872C379.613 876.782 378.967 877.539 378.116 877.986C377.266 878.434 376.276 878.538 375.351 878.278C374.394 877.913 373.607 877.208 373.14 876.297C372.674 875.386 372.561 874.334 372.824 873.345C373.246 872.424 374.007 871.702 374.949 871.33C375.891 870.958 376.94 870.964 377.877 871.348" fill="white"/>
</g>
<path d="M412.139 910.254C413.095 907.948 414.465 905.836 416.181 904.022C418.169 902.509 420.433 901.398 422.846 900.75C422.846 900.582 421.956 900.317 420.44 900.509C418.505 900.829 416.701 901.69 415.236 902.993C413.771 904.296 412.705 905.988 412.163 907.872C411.73 909.316 411.898 910.254 412.139 910.254Z" fill="#263238"/>
<path d="M418.66 917.207C419.021 917.376 420.44 914.801 423.327 913.093C425.194 912.176 427.114 911.372 429.078 910.687C427.977 910.367 426.816 910.313 425.69 910.531C424.565 910.748 423.507 911.231 422.605 911.938C419.357 913.983 418.299 917.207 418.66 917.207Z" fill="#263238"/>
<path d="M401.071 902.025C404.934 896.806 410.235 892.826 416.326 890.573C412.955 890.827 409.728 892.04 407.025 894.069C404.322 896.099 402.256 898.86 401.071 902.025Z" fill="#263238"/>
<path d="M394.815 883.763C395.08 884.076 398.064 881.742 402.395 880.371C406.725 878.999 410.503 879.096 410.527 878.687C410.551 878.278 406.629 877.532 401.961 879.048C399.101 879.736 396.573 881.405 394.815 883.763Z" fill="#263238"/>
<path d="M389.811 865.862C392.232 864.263 394.864 863.007 397.631 862.133C400.487 861.673 403.393 861.6 406.268 861.917C406.268 861.772 405.45 861.195 403.862 860.762C401.717 860.248 399.481 860.248 397.336 860.763C395.191 861.277 393.198 862.291 391.519 863.721C390.22 864.828 389.691 865.742 389.811 865.862Z" fill="#263238"/>
<path d="M396.572 858.741C396.559 857.909 396.37 857.089 396.019 856.335C395.213 854.282 394.021 852.403 392.506 850.801C391.497 849.539 390.102 848.644 388.536 848.25C388.003 848.174 387.46 848.262 386.978 848.503C386.497 848.744 386.1 849.126 385.841 849.598C385.419 850.553 385.351 851.628 385.649 852.629C386.354 854.642 387.74 856.345 389.568 857.443C391.396 858.541 393.55 858.966 395.658 858.644C397.733 858.296 399.657 857.336 401.183 855.887C402.71 854.438 403.768 852.567 404.223 850.512C404.342 849.994 404.345 849.456 404.233 848.936C404.12 848.416 403.895 847.928 403.574 847.504C403.221 847.091 402.74 846.809 402.207 846.704C401.674 846.599 401.121 846.678 400.638 846.927C399.233 847.666 398.047 848.761 397.198 850.103C395.913 851.886 394.952 853.882 394.358 855.998C394.074 856.766 393.951 857.585 393.998 858.404C394.936 855.659 396.282 853.072 397.992 850.729C398.774 849.587 399.823 848.654 401.047 848.01C401.315 847.885 401.615 847.848 401.904 847.904C402.194 847.96 402.458 848.107 402.659 848.322C402.845 848.616 402.968 848.945 403.022 849.289C403.076 849.632 403.059 849.983 402.972 850.32C402.503 852.075 401.548 853.662 400.215 854.896C398.882 856.131 397.227 856.963 395.441 857.297C393.652 857.556 391.827 857.197 390.27 856.278C388.712 855.359 387.515 853.936 386.876 852.244C386.631 851.568 386.631 850.827 386.876 850.151C387.009 849.885 387.222 849.668 387.486 849.53C387.749 849.392 388.049 849.34 388.343 849.381C389.673 849.705 390.868 850.437 391.76 851.474C393.78 853.593 395.409 856.054 396.572 858.741Z" fill="#263238"/>
<path d="M187.679 827.294L191.096 878.831C191.096 878.831 139.799 895.866 139.486 905.466L239.746 906.188L237.725 825.633L187.679 827.294Z" fill="#84654D"/>
<g opacity="0.6">
<path d="M222.062 873.562C223.032 873.833 223.869 874.45 224.415 875.297C224.96 876.144 225.176 877.162 225.021 878.157C224.791 879.138 224.194 879.994 223.353 880.548C222.512 881.103 221.49 881.315 220.498 881.141C219.483 880.854 218.608 880.207 218.037 879.321C217.466 878.435 217.237 877.371 217.394 876.329C217.735 875.332 218.45 874.506 219.388 874.026C220.326 873.545 221.414 873.448 222.423 873.754" fill="white"/>
</g>
<g opacity="0.6">
<path d="M239.746 906.188L239.554 898.055L142.662 900.75C141.634 901.27 140.753 902.041 140.101 902.991C139.449 903.942 139.048 905.041 138.933 906.188H239.746Z" fill="white"/>
</g>
<path d="M189.46 878.374C189.46 878.879 191.866 879.024 194.272 880.515C196.678 882.007 198.073 884.028 198.53 883.836C198.988 883.643 198.146 880.828 195.162 879.024C192.179 877.219 189.339 877.941 189.46 878.374Z" fill="#263238"/>
<path d="M179.09 883.042C179.09 883.523 181.135 884.293 182.843 886.314C184.552 888.335 185.129 890.5 185.61 890.476C186.091 890.452 186.332 887.661 184.142 885.183C181.953 882.705 179.09 882.584 179.09 883.042Z" fill="#263238"/>
<path d="M173.508 895.818C173.941 895.818 174.543 893.412 173.219 890.789C171.896 888.166 169.562 887.156 169.369 887.565C169.177 887.974 170.621 889.37 171.775 891.559C172.93 893.749 173.003 895.77 173.508 895.818Z" fill="#263238"/>
<path d="M189.989 866.536C190.206 866.993 192.395 866.247 195.21 866.344C198.025 866.44 200.167 867.258 200.407 866.825C200.648 866.392 198.506 864.732 195.258 864.635C192.01 864.539 189.724 866.175 189.989 866.536Z" fill="#263238"/>
<g opacity="0.3">
<path d="M188.377 837.495L188.978 846.686L238.206 844.737L238.014 836.461L188.377 837.495Z" fill="black"/>
</g>
<path d="M189.484 856.142C191.148 856.525 192.883 856.459 194.512 855.95C196.308 855.572 198.053 854.982 199.71 854.193C200.696 853.721 201.645 853.174 202.549 852.557C203.107 852.238 203.603 851.823 204.016 851.33C204.326 850.975 204.509 850.526 204.535 850.056C204.561 849.585 204.429 849.119 204.161 848.732C203.907 848.399 203.579 848.13 203.203 847.947C202.827 847.763 202.414 847.669 201.995 847.673C201.358 847.688 200.726 847.794 200.119 847.986C199.059 848.287 198.028 848.681 197.039 849.165C195.361 849.97 193.825 851.042 192.491 852.341C190.23 854.554 189.508 856.407 189.676 856.503C189.845 856.599 190.976 855.084 193.285 853.231C194.635 852.166 196.114 851.276 197.688 850.584C198.617 850.184 199.574 849.854 200.552 849.598C201.586 849.309 202.5 849.261 202.789 849.718C203.078 850.175 202.789 849.983 202.789 850.295C202.468 850.637 202.104 850.936 201.706 851.186C199.432 852.755 196.934 853.972 194.296 854.795C192.663 855.132 191.055 855.582 189.484 856.142Z" fill="#263238"/>
<path d="M190.158 856.816C191.042 855.373 191.454 853.691 191.337 852.004C191.36 850.139 191.068 848.284 190.471 846.518C190.11 845.474 189.65 844.467 189.099 843.51C188.807 842.862 188.352 842.3 187.778 841.878C187.205 841.457 186.533 841.19 185.827 841.104C185.384 841.136 184.958 841.29 184.597 841.549C184.236 841.808 183.954 842.162 183.782 842.572C183.539 843.164 183.385 843.788 183.325 844.425C183.142 845.54 183.142 846.678 183.325 847.793C183.646 849.666 184.432 851.428 185.61 852.918C187.655 855.468 189.725 855.974 189.749 855.805C189.773 855.637 188.377 854.65 186.693 852.244C185.782 850.833 185.191 849.24 184.961 847.577C184.828 846.619 184.828 845.647 184.961 844.689C184.961 843.607 185.466 842.74 185.875 842.837C186.284 842.933 187.247 843.583 187.68 844.425C188.188 845.28 188.63 846.173 189.003 847.095C189.603 848.697 189.984 850.372 190.134 852.076C190.35 854.891 189.869 856.744 190.158 856.816Z" fill="#263238"/>
<path d="M187.439 377.797L340.175 376.642L413.992 861.459L350.593 869.496L269.365 470.863L245.04 870.915L244.968 872.118L176.419 870.915L187.439 377.797Z" fill="#4D683D"/>
<path d="M264.24 460.42C264.298 458.448 264.169 456.474 263.855 454.526C263.494 450.868 263.109 445.864 262.941 440.306C262.772 434.748 262.941 429.695 262.941 426.062C263.129 424.086 263.129 422.096 262.941 420.119C262.401 422.032 262.094 424.003 262.026 425.99C261.159 435.534 261.45 445.148 262.893 454.622C263.081 456.606 263.534 458.556 264.24 460.42Z" fill="#455A64"/>
<path d="M251.656 421.563C251.656 421.563 251.391 421.274 250.766 421.226C249.903 421.2 249.056 421.462 248.36 421.972C247.789 422.363 247.317 422.882 246.983 423.487C246.649 424.093 246.461 424.769 246.435 425.461C246.508 426.323 246.832 427.145 247.365 427.827C247.899 428.508 248.619 429.02 249.439 429.298C250.259 429.576 251.142 429.61 251.98 429.394C252.818 429.178 253.575 428.723 254.159 428.083C254.561 427.519 254.827 426.869 254.936 426.184C255.045 425.499 254.992 424.799 254.784 424.137C254.522 423.272 253.97 422.524 253.22 422.02C252.691 421.683 252.33 421.683 252.306 421.731C252.282 421.779 253.533 422.453 253.918 424.378C254.029 424.894 254.027 425.429 253.91 425.944C253.794 426.459 253.567 426.943 253.244 427.361C252.801 427.788 252.249 428.085 251.649 428.218C251.049 428.351 250.423 428.317 249.841 428.118C249.26 427.919 248.744 427.563 248.351 427.09C247.958 426.617 247.703 426.045 247.614 425.437C247.62 424.912 247.736 424.394 247.956 423.917C248.176 423.44 248.494 423.015 248.889 422.67C250.237 421.346 251.656 421.731 251.656 421.563Z" fill="#455A64"/>
<path d="M290.778 411.746C290.778 411.746 291.211 412.276 292.174 413.021C293.529 414.081 294.988 415 296.529 415.764C298.829 416.923 301.25 417.827 303.747 418.459C306.785 419.217 309.903 419.613 313.034 419.638C316.172 419.609 319.296 419.221 322.346 418.483C324.844 417.843 327.264 416.932 329.564 415.764C331.103 415.007 332.562 414.096 333.919 413.045C334.857 412.3 335.362 411.842 335.314 411.77C335.266 411.698 333.053 413.214 329.179 414.97C326.909 415.989 324.549 416.795 322.129 417.376C316.187 418.772 310.002 418.772 304.06 417.376C301.634 416.817 299.272 416.011 297.01 414.97C293.04 413.19 290.923 411.554 290.778 411.746Z" fill="#455A64"/>
<path d="M196.221 422.02C197.541 422.599 198.966 422.902 200.407 422.91C207.394 423.429 214.338 421.441 219.992 417.304C221.209 416.537 222.257 415.53 223.072 414.345C215.349 420.075 205.806 422.802 196.221 422.02Z" fill="#455A64"/>
<path d="M389.811 865.862C389.638 865.53 389.493 865.184 389.378 864.828C389.161 864.13 388.849 863.047 388.512 861.628C387.838 858.789 386.924 854.578 385.817 849.116C383.652 838.217 380.668 822.433 377.107 802.872C369.889 763.774 360.505 709.71 350.039 649.968C339.573 590.226 330.021 536.211 323.14 497.016C319.603 477.503 316.74 461.696 314.767 450.7C313.732 445.286 312.938 441.076 312.361 438.116C312.072 436.721 311.855 435.71 311.711 434.844L311.446 433.737C311.446 433.737 311.446 434.122 311.567 434.868C311.687 435.614 311.879 436.769 312.096 438.165C312.601 441.1 313.299 445.383 314.237 450.772C316.114 461.792 318.833 477.624 322.201 497.161L348.668 650.185C359.11 709.927 368.758 763.967 376.097 803.041C379.754 822.578 382.857 838.361 385.191 849.213C387.525 860.064 389.354 866.055 389.811 865.862Z" fill="#455A64"/>
<path d="M195.138 860.401C195.138 860.401 195.138 860.016 195.138 859.27C195.138 858.524 195.138 857.393 195.138 855.998C195.138 853.062 195.138 848.78 195.138 843.39C195.138 838.001 195.139 831.191 195.355 823.42C195.572 815.648 195.523 806.77 195.788 796.953C196.173 777.368 196.919 754.054 198.05 728.189C199.181 702.324 200.889 673.884 203.078 644.098C205.268 614.311 207.891 585.92 210.657 560.151C213.424 534.382 216.143 511.236 218.694 491.795C219.897 482.171 221.1 473.317 222.182 465.593C223.265 457.87 224.179 451.157 224.973 445.84C225.767 440.522 226.321 436.216 226.73 433.352C226.922 431.957 227.067 430.946 227.163 430.08C227.185 429.712 227.185 429.342 227.163 428.973C227.163 428.973 227.163 429.334 226.946 430.08C226.73 430.826 226.609 431.933 226.393 433.304C225.912 436.216 225.238 440.402 224.396 445.768C223.554 451.133 222.495 457.798 221.388 465.497C220.282 473.197 218.982 481.979 217.707 491.699C215.061 511.116 212.221 534.262 209.406 560.031C206.591 585.799 203.993 614.167 201.731 644.001C199.469 673.836 197.929 702.252 196.799 728.213C195.668 754.174 195.066 777.416 194.802 797.026C194.609 806.818 194.609 815.672 194.537 823.492C194.465 831.312 194.537 837.928 194.537 843.462C194.537 848.996 194.537 853.086 194.537 856.07C194.537 857.465 194.537 858.476 194.537 859.342C194.537 860.208 195.138 860.401 195.138 860.401Z" fill="#455A64"/>
<path d="M207.89 152.255L146.392 199.437L189.508 256.22L242.104 226.361L207.89 152.255Z" fill="#FFFEFE"/>
<path d="M207.89 152.255C216.792 146.793 247.566 140.032 247.566 140.032L307.091 133.56L358.725 157.259L337.552 246.114L356.126 413.647L178.921 423.271L207.89 152.255Z" fill="#FFFEFE"/>
<path d="M200.407 203.672C199.684 199.162 199.386 194.595 199.517 190.029C199.243 185.472 199.372 180.898 199.902 176.363C200.622 180.873 200.92 185.44 200.792 190.005C201.068 194.563 200.939 199.137 200.407 203.672Z" fill="#263238"/>
<path d="M312.12 52.0189L305.599 144.291C305.06 151.538 301.808 158.315 296.492 163.27C291.176 168.225 284.187 170.993 276.919 171.022C272.987 171.006 269.1 170.188 265.495 168.617C261.891 167.045 258.646 164.755 255.958 161.884C253.27 159.014 251.197 155.625 249.866 151.926C248.534 148.226 247.973 144.293 248.215 140.369C248.793 131.587 249.298 124.417 249.298 124.417C249.298 124.417 226.97 120.928 226.705 98.5999C226.537 85.7035 228.775 56.422 230.675 34.0217C231.291 26.7075 234.633 19.8919 240.04 14.927C245.446 9.96213 252.521 7.21064 259.861 7.2184H273.358C278.871 7.54209 284.263 8.96707 289.216 11.4092C294.169 13.8514 298.582 17.2612 302.195 21.4373C305.808 25.6133 308.548 30.4711 310.253 35.7236C311.957 40.9761 312.592 46.517 312.12 52.0189Z" fill="#FFBE9D"/>
<path d="M249.274 124.08C259.586 124.276 269.721 121.395 278.387 115.803C278.387 115.803 271.506 131.875 249.226 129.878L249.274 124.08Z" fill="#EB996E"/>
<path d="M235.223 62.2205C235.209 63.0507 235.522 63.853 236.093 64.4556C236.664 65.0583 237.449 65.4132 238.278 65.4446C238.684 65.4807 239.093 65.4346 239.481 65.309C239.869 65.1834 240.227 64.9809 240.535 64.7137C240.843 64.4464 241.093 64.1198 241.272 63.7534C241.451 63.3871 241.554 62.9885 241.575 62.5814C241.581 61.749 241.264 60.9467 240.689 60.3447C240.114 59.7428 239.327 59.3886 238.495 59.3573C238.091 59.3246 237.684 59.3732 237.299 59.5004C236.914 59.6275 236.559 59.8306 236.254 60.0975C235.949 60.3645 235.7 60.6899 235.523 61.0545C235.346 61.4192 235.244 61.8157 235.223 62.2205Z" fill="#263238"/>
<path d="M234.525 56.3979C234.91 56.831 237.34 55.0264 240.757 55.0505C244.173 55.0746 246.7 56.7588 247.085 56.3498C247.47 55.9407 246.868 55.4114 245.761 54.6174C244.277 53.5907 242.513 53.0447 240.709 53.0535C238.918 53.0378 237.17 53.6035 235.728 54.6655C234.694 55.4595 234.333 56.2295 234.525 56.3979Z" fill="#263238"/>
<path d="M268.21 62.2446C268.203 63.0746 268.522 63.8743 269.097 64.4724C269.673 65.0705 270.46 65.4195 271.289 65.4446C271.693 65.4773 272.1 65.4287 272.485 65.3015C272.87 65.1744 273.225 64.9714 273.53 64.7044C273.835 64.4375 274.084 64.112 274.261 63.7474C274.438 63.3827 274.54 62.9863 274.562 62.5814C274.569 61.753 274.254 60.9541 273.684 60.3528C273.114 59.7515 272.333 59.3947 271.506 59.3573C271.099 59.3246 270.689 59.3739 270.301 59.5022C269.913 59.6306 269.555 59.8354 269.248 60.1046C268.941 60.3738 268.69 60.7019 268.512 61.0694C268.334 61.437 268.231 61.8366 268.21 62.2446Z" fill="#263238"/>
<path d="M268.258 57.0475C268.643 57.4566 271.073 55.6761 274.489 55.6761C277.906 55.6761 280.432 57.4085 280.817 56.9994C281.202 56.5904 280.601 56.0611 279.494 55.243C278.012 54.2147 276.245 53.6762 274.441 53.7031C272.655 53.6924 270.911 54.2484 269.461 55.2911C268.426 56.1092 268.065 56.8551 268.258 57.0475Z" fill="#263238"/>
<path d="M256.107 81.6373C254.303 81.0801 252.436 80.7487 250.55 80.6508C249.659 80.6508 248.841 80.3861 248.697 79.7846C248.608 78.8791 248.811 77.9689 249.274 77.1861C250.092 75.0688 250.959 72.8311 251.873 70.5213C255.458 61.0175 258.08 53.1978 257.695 53.0535C257.31 52.9091 254.062 60.4881 250.477 69.8958C249.611 72.3018 248.769 74.4913 248.071 76.6086C247.513 77.6643 247.351 78.8846 247.614 80.0493C247.743 80.3595 247.94 80.637 248.189 80.8618C248.439 81.0865 248.736 81.2528 249.058 81.3485C249.545 81.4761 250.046 81.5408 250.55 81.541C252.389 81.8259 254.259 81.8583 256.107 81.6373Z" fill="#263238"/>
<path d="M267.368 45.1376C267.705 46.076 271.121 45.6429 275.163 46.1241C279.205 46.6053 282.381 47.7121 282.983 46.87C283.224 46.4609 282.646 45.5948 281.323 44.6805C279.571 43.574 277.59 42.8818 275.53 42.6566C273.47 42.4315 271.386 42.6793 269.437 43.3812C267.969 43.9587 267.223 44.7045 267.368 45.1376Z" fill="#263238"/>
<path d="M234.549 49.661C235.15 50.455 237.532 49.661 240.372 49.661C243.211 49.661 245.617 50.1662 246.17 49.3482C246.411 48.9632 246.026 48.1933 244.991 47.4474C243.578 46.5638 241.934 46.1195 240.268 46.1709C238.601 46.2223 236.988 46.7671 235.632 47.7361C234.621 48.482 234.284 49.3001 234.549 49.661Z" fill="#263238"/>
<path d="M304.589 68.789C304.974 68.6206 319.939 64.2416 319.458 79.5199C318.977 94.7983 303.723 91.1411 303.723 90.708C303.723 90.275 304.589 68.789 304.589 68.789Z" fill="#FFBE9D"/>
<path d="M308.679 85.0779C308.679 85.0779 308.944 85.2704 309.401 85.4869C309.714 85.618 310.049 85.6854 310.388 85.6854C310.726 85.6854 311.062 85.618 311.374 85.4869C312.382 84.8966 313.215 84.0481 313.786 83.0288C314.357 82.0095 314.645 80.8564 314.622 79.6884C314.697 78.3827 314.484 77.0765 313.997 75.8628C313.867 75.3787 313.622 74.9333 313.282 74.5646C312.943 74.1959 312.52 73.9148 312.048 73.7454C311.746 73.6543 311.422 73.6718 311.132 73.7949C310.842 73.918 310.604 74.1388 310.46 74.4191C310.243 74.8522 310.34 75.165 310.243 75.1891C310.147 75.2131 309.931 74.9244 310.075 74.2748C310.173 73.9074 310.393 73.5846 310.701 73.3605C311.132 73.0511 311.667 72.9216 312.192 72.9996C312.808 73.1415 313.377 73.4365 313.848 73.8571C314.319 74.2776 314.676 74.8102 314.887 75.4056C315.504 76.7533 315.777 78.2332 315.681 79.7124C315.709 81.0704 315.336 82.4064 314.608 83.5533C313.881 84.7003 312.831 85.6072 311.591 86.1606C311.18 86.269 310.749 86.282 310.332 86.1986C309.915 86.1152 309.523 85.9376 309.185 85.6794C308.679 85.4388 308.511 85.1019 308.679 85.0779Z" fill="#EB996E"/>
<path d="M313.082 68.2597C311.631 68.1642 310.182 68.4653 308.889 69.1308C307.596 69.7962 306.509 70.8009 305.744 72.0372C304.733 74.2267 304.517 76.6808 303.53 78.8703C303.138 80.005 302.378 80.9762 301.371 81.63C300.364 82.2838 299.168 82.5828 297.972 82.4794C297.188 82.2195 296.484 81.762 295.927 81.1509C295.371 80.5399 294.981 79.7959 294.796 78.9906C294.471 77.3625 294.471 75.6863 294.796 74.0582C295.686 66.8401 297.202 59.8626 297.491 52.6926C298.07 45.4761 296.496 38.25 292.968 31.9284C291.174 28.7992 288.568 26.2127 285.426 24.4424C282.283 22.6721 278.721 21.7837 275.115 21.8712C270.303 22.2561 266.02 24.7344 261.304 25.4081C258.498 25.7711 255.647 25.4943 252.963 24.5984C250.28 23.7026 247.834 22.2108 245.809 20.2351C244.887 19.4832 243.923 18.7844 242.922 18.1418C242.967 16.4166 243.519 14.7429 244.51 13.3297C253.869 4.66799 270.712 2.26193 283.007 5.36573C289.286 6.91266 295.154 9.80804 300.202 13.8508C305.25 17.8935 309.358 22.9866 312.24 28.7765C317.557 40.3496 315.993 56.4701 313.058 68.1634" fill="#263238"/>
<path d="M230.411 30.557C230.411 30.557 288.998 11.7177 314.357 62.413C314.357 62.413 318.135 49.7091 318.135 42.924C318.135 38.3766 315.416 11.3327 287.602 2.81533C287.602 2.91157 245.665 -13.1848 230.411 30.557Z" fill="#84654D"/>
<path d="M280.769 31.7841C279.729 33.4626 278.313 34.8766 276.633 35.9147C274.954 36.9529 273.056 37.5867 271.089 37.7663C269.123 37.9459 267.142 37.6664 265.302 36.9498C263.462 36.2332 261.813 35.099 260.486 33.6367C259.898 35.0898 258.872 36.3232 257.55 37.165C256.227 38.0068 254.676 38.4152 253.11 38.3331C251.545 38.251 250.044 37.6825 248.818 36.707C247.591 35.7314 246.699 34.3974 246.266 32.8909C244.678 34.6619 242.735 36.0799 240.564 37.0533C239.47 37.5139 238.262 37.6294 237.101 37.3843C235.94 37.1392 234.882 36.5452 234.068 35.6819C233.408 34.6666 233.092 33.4665 233.166 32.258C233.239 31.0496 233.699 29.8967 234.477 28.969C236.06 27.1358 238.103 25.7572 240.396 24.975C247.34 21.9201 254.969 20.7579 262.507 21.6065C270.086 22.5127 277.028 26.2936 281.9 32.1691" fill="#263238"/>
<g opacity="0.4">
<path d="M230.411 30.557C235.298 25.4328 241.983 22.4052 249.057 22.1118C266.333 21.3419 298.67 31.0623 314.357 62.413C314.357 62.413 318.135 49.7091 318.135 42.924C318.135 38.3766 315.416 11.3327 287.602 2.81533C287.602 2.91157 245.665 -13.1848 230.411 30.557Z" fill="black"/>
</g>
<path d="M311.903 56.4701C303.015 43.2351 291.368 32.0804 277.761 23.7719C264.312 15.3508 242.032 6.92965 226.681 2.95968C222.14 1.47152 217.332 0.971137 212.582 1.49201C210.202 1.80336 207.958 2.77872 206.107 4.30638C204.256 5.83404 202.873 7.85221 202.116 10.1297C200.672 15.9042 210.922 24.8306 215.758 28.3434C220.481 31.4943 225.373 34.3858 230.41 37.0052C230.41 37.0052 230.29 26.2742 247.469 24.0607C270.832 20.9809 311.903 56.4701 311.903 56.4701Z" fill="#84654D"/>
<path d="M263.854 12.6801C258.587 9.8672 252.9 7.92528 247.012 6.92967C248.428 5.8268 249.971 4.89783 251.608 4.16272C256.213 4.93091 260.665 6.43379 264.793 8.61391L263.854 12.6801Z" fill="#E0E0E0"/>
<path d="M308.679 69.3183C307.681 70.1972 306.62 71.0014 305.503 71.7244C303.097 73.5048 300.547 75.3334 297.828 77.3545C294.302 80.1783 290.544 82.6976 286.592 84.8854C289.797 81.698 293.311 78.8367 297.082 76.344C302.953 71.8687 308.294 68.8131 308.679 69.3183Z" fill="#EBEBEB"/>
<path d="M310.123 91.5983C305.146 99.2777 298.016 105.32 289.624 108.97C289.455 108.633 294.7 105.65 300.354 100.837C306.009 96.0254 309.834 91.3577 310.123 91.5983Z" fill="#EBEBEB"/>
<path d="M226.152 84.2117C228.647 84.958 231.198 85.5051 233.779 85.8478C244.847 85.2463 248.721 81.517 266.79 85.3666C269.71 85.9836 272.717 86.0732 275.669 85.6313C279.247 85.1156 282.857 84.8583 286.472 84.8614L289.96 108.922C289.96 108.922 268.523 127.665 249.226 125.572C224.251 122.925 221.316 93.8118 226.152 84.2117Z" fill="#FAFAFA"/>
<path d="M226.152 84.2117C226.152 84.2117 225.936 84.8373 225.502 85.9681C224.975 87.6755 224.628 89.4335 224.468 91.2133C223.935 97.8237 225.138 104.459 227.957 110.462C229.898 114.567 232.834 118.124 236.498 120.808C240.807 123.755 245.862 125.423 251.079 125.62C256.868 125.724 262.611 124.583 267.921 122.275C273.644 119.913 279.077 116.902 284.114 113.301C286.087 111.881 288.012 110.462 289.792 108.922V109.162C288.565 100.693 287.386 92.5847 286.327 85.102L286.544 85.2944C282.277 85.3381 278.017 85.6596 273.792 86.2568C271.773 86.3962 269.746 86.2911 267.753 85.944C265.828 85.5831 263.999 85.1501 262.171 84.8854C258.77 84.2924 255.324 84.0026 251.873 84.0192C248.917 84.1085 245.972 84.4302 243.067 84.9816C240.42 85.4388 238.038 85.8238 235.848 85.9922C234.872 86.0867 233.889 86.0867 232.913 85.9922C232.023 85.9922 231.229 85.6794 230.507 85.511C227.644 84.8373 226.152 84.332 226.152 84.332C231.616 86.0815 237.474 86.182 242.994 84.6208C249.338 83.3147 255.874 83.2493 262.243 84.4283C264.071 84.6689 265.948 85.1019 267.849 85.4628C269.804 85.7898 271.79 85.8867 273.768 85.7516C278.007 85.1322 282.284 84.8027 286.568 84.7651H286.784V84.9576C287.891 92.5126 289.046 100.621 290.273 109.018C288.444 110.558 286.52 112.001 284.547 113.421C279.467 117.035 273.995 120.062 268.234 122.444C262.876 124.762 257.084 125.903 251.247 125.788C246.283 125.683 241.448 124.183 237.295 121.46C233.142 118.737 229.84 114.901 227.764 110.389C224.964 104.34 223.811 97.6588 224.42 91.0208C224.604 89.2284 224.983 87.4615 225.551 85.7516C225.888 84.717 226.152 84.2117 226.152 84.2117Z" fill="#263238"/>
<path d="M228.173 98.2871C236.548 102.362 245.77 104.398 255.083 104.226C264.396 104.055 273.536 101.682 281.755 97.3006C278.672 101.454 274.796 104.954 270.351 107.598C265.082 110.293 258.922 110.438 252.979 110.414C248.259 110.743 243.526 109.986 239.144 108.2C234.971 105.707 231.423 102.291 228.774 98.2149" fill="#E0E0E0"/>
<path d="M279.205 92.1998C276.971 93.0628 274.647 93.6682 272.276 94.0043C266.618 95.1123 260.882 95.7719 255.121 95.9773C249.36 96.1687 243.592 95.9193 237.869 95.2314C235.486 95.0494 233.13 94.6056 230.844 93.9081C233.257 93.8962 235.668 94.0409 238.062 94.3412C249.459 95.2564 260.923 94.8527 272.228 93.1382C274.531 92.6761 276.862 92.3627 279.205 92.1998Z" fill="#E0E0E0"/>
<path d="M283.343 102.233C282.042 104.113 280.412 105.744 278.531 107.045C274.248 110.47 269.314 112.99 264.029 114.454C258.744 115.918 253.217 116.295 247.782 115.562C245.529 115.373 243.325 114.803 241.262 113.878C241.262 113.686 243.812 114.335 247.902 114.672C258.606 115.642 269.296 112.683 277.978 106.347C281.419 103.965 283.199 102.089 283.343 102.233Z" fill="#E0E0E0"/>
<path d="M283.729 96.7472C283.155 97.2602 282.506 97.6821 281.804 97.9984C279.986 99.01 278.096 99.8865 276.15 100.621C273.259 101.736 270.281 102.613 267.248 103.244C263.54 104.002 259.771 104.421 255.987 104.495C252.191 104.533 248.399 104.235 244.655 103.604C241.608 103.059 238.614 102.254 235.704 101.198C233.729 100.545 231.806 99.7402 229.954 98.7924C229.246 98.505 228.588 98.1071 228.005 97.6134C228.005 97.4209 231.013 98.8645 235.969 100.38C238.877 101.274 241.844 101.965 244.847 102.45C252.208 103.597 259.711 103.475 267.031 102.089C270.019 101.492 272.961 100.688 275.837 99.6826C280.745 98.0224 283.609 96.4826 283.729 96.7472Z" fill="#263238"/>
<path d="M265.78 96.7472C256.328 98.5564 246.586 98.1528 237.316 95.5682C237.316 95.2073 243.692 96.266 251.536 96.5547C259.38 96.8434 265.756 96.3382 265.78 96.7472Z" fill="#263238"/>
<path d="M0.104492 396.684V201.578H271.482V396.684L127.649 397.887L0.104492 396.684Z" fill="#84654D"/>
<g opacity="0.4">
<path d="M271.506 201.578H0.104492V396.684H271.506V201.578Z" fill="black"/>
</g>
<path d="M127.649 397.887L0.104492 396.684V201.578H127.24L127.649 397.887Z" fill="#84654D"/>
<path d="M68.8691 201.578H51.9546V235.431H68.8691V201.578Z" fill="#263238"/>
<path d="M42.8359 353.616H9.15137V387.301H42.8359V353.616Z" fill="#FAFAFA"/>
<path d="M42.908 387.373H9.0791V353.688H42.908V387.373ZM9.22346 387.373H42.7877V353.688H9.22346V387.373Z" fill="#263238"/>
<path d="M335.001 246.379L340.607 291.781L256.396 341.754L269.485 370.627L365.197 331.962C376.794 326.067 386.707 317.357 385.889 304.316L381.294 240.773L335.001 246.379Z" fill="#FFBE9D"/>
<path d="M358.725 157.259C366.908 164.282 372.346 173.972 374.076 184.616C377.3 202.204 388.247 251.384 388.247 251.384L330.502 258.217V244.695C330.502 244.502 325.113 219.335 325.113 219.335L335.868 184.616L358.725 157.259Z" fill="#FFFEFE"/>
<path d="M385.961 251.6C384.667 251.938 383.347 252.171 382.015 252.298L371.212 253.79C362.093 254.993 349.558 256.581 335.507 258.241L330.694 258.818H330.045V258.144C329.082 245.272 328.024 233.843 327.254 225.615C326.869 221.669 326.556 218.397 326.315 215.991C326.145 214.812 326.073 213.621 326.099 212.43C326.432 213.577 326.658 214.753 326.773 215.943C327.134 218.204 327.567 221.5 328.096 225.567C329.082 233.771 330.31 245.224 331.296 258.12L330.598 257.543L335.41 256.966C349.365 255.281 361.877 253.838 371.164 252.875L382.015 251.768C383.324 251.602 384.643 251.546 385.961 251.6Z" fill="#263238"/>
<path d="M353.985 160.435C353.985 160.628 351.892 161.518 348.692 163.491C340.311 168.651 333.802 176.357 330.117 185.482C328.697 188.971 328.192 191.281 327.976 191.232C328.075 189.154 328.514 187.106 329.275 185.169C332.622 175.604 339.382 167.61 348.258 162.721C350.026 161.644 351.962 160.872 353.985 160.435Z" fill="#263238"/>
<path d="M255.097 339.228L242.73 344.882L237.436 342.837L210.44 341.153L193.598 344.882L193.117 345.845C193.117 355.012 210.465 351.403 215.782 352.846C221.099 354.29 216.263 365.622 216.263 365.622C216.263 365.622 192.395 396.732 188.233 404.119C186.164 407.848 186.837 409.894 188.04 411.024C188.661 411.559 189.446 411.865 190.264 411.891C191.083 411.917 191.886 411.662 192.539 411.169L201.346 404.937C201.346 404.937 225.598 406.357 227.259 405.539C229.563 403.802 231.557 401.687 233.153 399.283C244.655 388.25 257.538 378.755 271.482 371.036L255.097 339.228Z" fill="#FAFAFA"/>
<path d="M255.097 339.228C255.097 339.228 255.097 339.372 255.41 339.709C255.722 340.046 255.915 340.648 256.276 341.297L259.572 347.505C262.484 353.063 266.67 361.003 271.867 370.868L272.036 371.228L271.675 371.421C257.774 379.234 244.94 388.809 233.491 399.908C231.957 402.265 230.047 404.354 227.837 406.092C227.474 406.326 227.062 406.474 226.634 406.525H225.551H223.385H219.079C213.28 406.381 207.313 406.116 201.202 405.779L201.587 405.659L195.932 409.533L193.045 411.602C192.501 412.026 191.866 412.318 191.189 412.456C190.513 412.593 189.814 412.573 189.147 412.396C188.462 412.202 187.84 411.827 187.349 411.311C186.858 410.794 186.515 410.155 186.356 409.46C186.109 408.135 186.277 406.765 186.838 405.539C187.949 403.301 189.27 401.174 190.783 399.187C199.156 387.156 207.794 375.848 215.854 365.261V365.382C216.52 363.754 217.043 362.071 217.418 360.353C217.851 358.744 217.917 357.059 217.611 355.421C217.452 354.708 217.02 354.086 216.408 353.688C215.705 353.364 214.944 353.184 214.17 353.159C212.51 352.991 210.802 353.015 209.142 352.991C205.831 353.094 202.519 352.868 199.253 352.317C197.609 352.016 196.059 351.332 194.729 350.32C194.103 349.754 193.602 349.064 193.259 348.293C192.915 347.522 192.735 346.689 192.732 345.845V345.724L193.214 344.762V344.545H193.454L210.296 340.888H210.441L237.413 342.717L242.706 344.81H242.513L251.825 340.72L254.231 339.685L255.001 339.397L254.183 339.83L251.777 340.984L242.706 345.291H242.586L237.268 343.294L210.272 341.754H210.393L193.55 345.556L193.887 345.291L193.406 346.254V346.013C193.415 346.704 193.567 347.386 193.853 348.016C194.139 348.645 194.552 349.208 195.066 349.67C196.26 350.572 197.656 351.166 199.132 351.403C202.312 351.931 205.536 352.14 208.757 352.028C210.441 352.028 212.125 352.028 213.881 352.173C214.832 352.21 215.765 352.439 216.624 352.846C217.486 353.4 218.105 354.26 218.357 355.252C218.732 357.084 218.682 358.977 218.212 360.786C217.817 362.578 217.27 364.333 216.576 366.031C208.54 376.642 199.926 387.902 191.577 399.933C190.164 401.873 188.924 403.934 187.872 406.092C187.416 407.084 187.265 408.19 187.439 409.268C187.553 409.748 187.79 410.189 188.128 410.548C188.466 410.907 188.892 411.171 189.364 411.313C189.853 411.437 190.365 411.444 190.857 411.336C191.35 411.227 191.811 411.005 192.203 410.688L195.114 408.618L200.841 404.576L201.009 404.456H201.226C207.313 404.793 213.256 405.081 219.054 405.25H223.337H225.431H226.441C226.707 405.22 226.962 405.129 227.187 404.985C229.256 403.328 231.05 401.355 232.504 399.139C244.052 388.08 256.993 378.576 271.001 370.868L270.832 371.421L259.067 348.058C257.72 345.339 256.661 343.246 255.891 341.682L255.073 339.998L255.097 339.228Z" fill="#263238"/>
<path d="M224.155 384.053C220.665 387.869 216.944 391.469 213.015 394.832C209.863 397.743 206.976 400.342 204.883 402.194C203.805 403.28 202.601 404.233 201.298 405.033C204.554 400.992 208.188 397.27 212.149 393.917C215.807 390.231 219.83 386.926 224.155 384.053Z" fill="#263238"/>
<path d="M231.493 390.068C229.616 393.239 227.253 396.096 224.492 398.537C222.057 401.301 219.266 403.728 216.191 405.755C218.396 402.829 220.877 400.121 223.602 397.671C226.042 394.947 228.68 392.406 231.493 390.068Z" fill="#263238"/>
<path d="M285.315 225.364C285.315 226.157 285.165 226.831 284.864 227.388C284.566 227.944 284.159 228.369 283.643 228.663C283.129 228.954 282.551 229.099 281.91 229.099C281.263 229.099 280.683 228.953 280.17 228.659C279.656 228.366 279.25 227.941 278.952 227.384C278.653 226.828 278.504 226.154 278.504 225.364C278.504 224.571 278.653 223.896 278.952 223.339C279.25 222.783 279.656 222.359 280.17 222.068C280.683 221.775 281.263 221.628 281.91 221.628C282.551 221.628 283.129 221.775 283.643 222.068C284.159 222.359 284.566 222.783 284.864 223.339C285.165 223.896 285.315 224.571 285.315 225.364ZM283.756 225.364C283.756 224.85 283.679 224.417 283.526 224.064C283.374 223.711 283.16 223.444 282.883 223.261C282.606 223.079 282.281 222.988 281.91 222.988C281.538 222.988 281.214 223.079 280.937 223.261C280.66 223.444 280.444 223.711 280.29 224.064C280.139 224.417 280.063 224.85 280.063 225.364C280.063 225.877 280.139 226.311 280.29 226.663C280.444 227.016 280.66 227.284 280.937 227.466C281.214 227.648 281.538 227.739 281.91 227.739C282.281 227.739 282.606 227.648 282.883 227.466C283.16 227.284 283.374 227.016 283.526 226.663C283.679 226.311 283.756 225.877 283.756 225.364ZM286.454 229V221.727H289.324C289.873 221.727 290.342 221.826 290.73 222.022C291.121 222.216 291.418 222.492 291.621 222.849C291.827 223.205 291.93 223.622 291.93 224.103C291.93 224.586 291.826 225.001 291.618 225.349C291.409 225.695 291.108 225.96 290.712 226.145C290.319 226.33 289.843 226.422 289.285 226.422H287.363V225.186H289.036C289.33 225.186 289.573 225.146 289.768 225.065C289.962 224.985 290.106 224.864 290.201 224.703C290.298 224.542 290.346 224.342 290.346 224.103C290.346 223.862 290.298 223.658 290.201 223.492C290.106 223.326 289.961 223.201 289.764 223.116C289.57 223.028 289.325 222.984 289.029 222.984H287.992V229H286.454ZM290.382 225.69L292.189 229H290.492L288.724 225.69H290.382ZM299.7 225.364C299.7 226.157 299.55 226.831 299.249 227.388C298.951 227.944 298.544 228.369 298.028 228.663C297.514 228.954 296.936 229.099 296.295 229.099C295.648 229.099 295.068 228.953 294.555 228.659C294.041 228.366 293.635 227.941 293.336 227.384C293.038 226.828 292.889 226.154 292.889 225.364C292.889 224.571 293.038 223.896 293.336 223.339C293.635 222.783 294.041 222.359 294.555 222.068C295.068 221.775 295.648 221.628 296.295 221.628C296.936 221.628 297.514 221.775 298.028 222.068C298.544 222.359 298.951 222.783 299.249 223.339C299.55 223.896 299.7 224.571 299.7 225.364ZM298.141 225.364C298.141 224.85 298.064 224.417 297.91 224.064C297.759 223.711 297.545 223.444 297.268 223.261C296.991 223.079 296.666 222.988 296.295 222.988C295.923 222.988 295.599 223.079 295.322 223.261C295.045 223.444 294.829 223.711 294.675 224.064C294.524 224.417 294.448 224.85 294.448 225.364C294.448 225.877 294.524 226.311 294.675 226.663C294.829 227.016 295.045 227.284 295.322 227.466C295.599 227.648 295.923 227.739 296.295 227.739C296.666 227.739 296.991 227.648 297.268 227.466C297.545 227.284 297.759 227.016 297.91 226.663C298.064 226.311 298.141 225.877 298.141 225.364Z" fill="#4F3D2E"/>
</svg>
